<?xml version="1.0" encoding="iso-8859-1"?>
<!-- Generator: Adobe Illustrator 19.0.0, SVG Export Plug-In . SVG Version: 6.00 Build 0)  -->
<svg version="1.1" id="Layer_1" xmlns="http://www.w3.org/2000/svg" xmlns:xlink="http://www.w3.org/1999/xlink" x="0px" y="0px"
	 viewBox="0 0 392.663 392.663" style="enable-background:new 0 0 392.663 392.663;" xml:space="preserve">
<path style="fill:#FFFFFF;" d="M196.331,66.586c-83.911,0-152.178,68.202-152.178,152.178s68.267,152.113,152.178,152.113
	s152.178-68.202,152.178-152.178S280.242,66.586,196.331,66.586z"/>
<path style="fill:#FFC10D;" d="M196.331,99.232c-54.497,0-100.59,36.719-114.812,86.691h37.624c6.012,0,10.925,4.848,10.925,10.925
	c0,6.077-4.848,10.925-10.925,10.925H77.382c-0.323,3.62-0.517,7.24-0.517,10.925c0,3.685,0.129,7.37,0.517,10.925h20.558
	c6.012,0,10.925,4.848,10.925,10.925c0,6.012-4.848,10.925-10.925,10.925H81.455c14.287,49.972,60.38,86.691,114.812,86.691
	c65.81,0,119.467-53.527,119.467-119.467S262.141,99.232,196.331,99.232z"/>
<g>
	<path style="fill:#194F82;" d="M196.331,170.408c10.279,0,18.683,8.404,18.683,18.683c0,6.012,4.848,10.925,10.925,10.925
		c6.012,0,10.925-4.848,10.925-10.925c0-18.554-12.541-34.263-29.608-38.917v-7.952c0-6.012-4.848-10.925-10.925-10.925
		c-6.012,0-10.925,4.848-10.925,10.925v7.952c-17.067,4.784-29.608,20.428-29.608,38.917c0,22.303,18.166,40.469,40.469,40.469
		c10.279,0,18.683,8.404,18.683,18.683s-8.404,18.683-18.683,18.683s-18.683-8.404-18.683-18.683
		c0-6.012-4.848-10.925-10.925-10.925c-6.012,0-10.925,4.848-10.925,10.925c0,18.554,12.541,34.263,29.608,38.917v7.952
		c0,6.012,4.848,10.925,10.925,10.925c6.012,0,10.925-4.848,10.925-10.925v-7.952c17.067-4.784,29.608-20.428,29.608-38.917
		c0-22.303-18.166-40.469-40.469-40.469c-10.279,0-18.683-8.404-18.683-18.683C177.648,178.812,186.053,170.408,196.331,170.408z"/>
	<path style="fill:#194F82;" d="M315.927,92.509l6.982-8.275l3.685,2.909c4.719,3.685,11.572,2.844,15.321-1.875
		c3.685-4.719,2.844-11.572-1.875-15.321l-24.048-18.877c-4.719-3.685-11.572-2.844-15.321,1.875s-2.844,11.572,1.875,15.321
		l3.168,2.457l-6.465,7.758c-26.117-19.135-57.729-31.289-91.927-33.358V21.915h22.497c6.012,0,10.925-4.848,10.925-10.925
		S235.895,0,229.818,0h-66.844c-6.012,0-10.925,4.848-10.925,10.925c0,6.012,4.848,10.925,10.925,10.925h22.497v23.273
		C94.578,50.747,22.368,126.384,22.368,218.634c0,96,78.028,174.028,173.964,174.028s173.964-78.028,173.964-173.964
		C370.295,169.115,349.35,124.315,315.927,92.509z M196.331,370.877c-83.911,0-152.178-68.202-152.178-152.178
		S112.42,66.586,196.331,66.586s152.178,68.202,152.178,152.178S280.242,370.877,196.331,370.877z"/>
</g>
<g>
</g>
<g>
</g>
<g>
</g>
<g>
</g>
<g>
</g>
<g>
</g>
<g>
</g>
<g>
</g>
<g>
</g>
<g>
</g>
<g>
</g>
<g>
</g>
<g>
</g>
<g>
</g>
<g>
</g>
</svg>
